<?xml version="1.0" standalone="no"?>
<!DOCTYPE svg PUBLIC "-//W3C//DTD SVG 20010904//EN"
 "http://www.w3.org/TR/2001/REC-SVG-20010904/DTD/svg10.dtd">
<svg version="1.0" xmlns="http://www.w3.org/2000/svg"
 width="555.000000pt" height="555.000000pt" viewBox="0 0 555.000000 555.000000"
 preserveAspectRatio="xMidYMid meet">
<metadata>
Created by potrace 1.14, written by Peter Selinger 2001-2017
</metadata>
<g transform="translate(0.000000,555.000000) scale(0.100000,-0.100000)"
fill="#000000" stroke="none">
<path d="M134 4517 c-47 -18 -80 -49 -106 -98 l-23 -44 1 -1400 c0 -1506 -2
-1443 52 -1503 63 -70 -3 -66 1007 -66 501 -1 927 2 948 7 52 10 100 51 128
106 l23 46 0 1405 0 1405 -21 40 c-26 50 -58 80 -105 100 -33 13 -149 15 -955
14 -686 0 -926 -3 -949 -12z m1683 -296 c53 -40 56 -64 55 -419 -1 -362 -3
-377 -72 -414 -33 -17 -73 -18 -719 -18 -668 0 -684 0 -716 20 -66 41 -68 57
-68 427 0 325 1 332 23 367 12 20 32 42 43 49 26 14 775 25 1177 17 240 -5
246 -5 277 -29z m-1164 -1110 c7 -7 12 -64 12 -173 1 -135 -2 -165 -15 -178
-22 -22 -316 -22 -331 0 -5 8 -8 89 -6 180 2 155 3 165 23 175 29 14 301 12
317 -4z m585 5 c22 -7 22 -10 22 -176 0 -129 -3 -172 -14 -182 -17 -18 -310
-18 -327 -1 -13 13 -15 341 -2 353 4 5 22 10 38 12 55 6 260 2 283 -6z m608
-11 c20 -27 20 -313 0 -340 -13 -18 -28 -19 -162 -20 -122 0 -151 2 -164 15
-23 23 -22 337 1 354 10 7 68 11 164 10 132 0 149 -2 161 -19z m-1191 -588
c16 -22 13 -333 -3 -349 -20 -20 -301 -20 -324 0 -16 13 -18 35 -18 177 0 169
2 179 44 186 11 2 80 3 154 3 109 -1 138 -5 147 -17z m596 2 c5 -8 9 -89 9
-181 0 -149 -2 -168 -17 -176 -28 -14 -310 -9 -324 5 -8 8 -12 62 -11 179 1
91 3 169 6 171 12 13 77 18 198 17 98 -2 133 -5 139 -15z m596 -5 c21 -29 17
-328 -4 -346 -24 -19 -309 -19 -326 0 -14 17 -18 317 -5 344 10 20 37 23 197
22 108 -2 126 -4 138 -20z m-259 -573 c33 -1 50 -8 78 -34 31 -28 37 -42 41
-83 6 -61 -14 -106 -59 -134 -29 -17 -60 -18 -561 -19 -578 0 -564 -1 -606 58
-27 37 -30 108 -6 148 21 36 49 55 94 62 26 5 778 6 1019 2z"/>
<path d="M2390 2955 l0 -1575 450 0 450 0 0 900 0 900 225 0 225 0 0 -450 0
-450 225 0 225 0 0 450 0 450 225 0 225 0 0 -900 0 -900 450 0 450 0 0 1575 0
1575 -450 0 -450 0 0 -225 0 -225 -225 0 -225 0 0 -225 0 -225 -225 0 -225 0
0 225 0 225 -225 0 -225 0 0 225 0 225 -450 0 -450 0 0 -1575z"/>
</g>
</svg>
